<svg width="48" height="49" viewBox="0 0 48 49" fill="none" xmlns="http://www.w3.org/2000/svg">
<rect y="0.5" width="48" height="48" rx="24" fill="#437EF7"/>
<path fill-rule="evenodd" clip-rule="evenodd" d="M28.1384 10.4873C28.4661 9.82788 29.2663 9.55897 29.9258 9.88668C33.4603 11.6432 36.1058 14.9223 37.002 18.8716C37.1649 19.5897 36.7149 20.304 35.9968 20.467C35.2786 20.6299 34.5644 20.1798 34.4014 19.4617C33.6859 16.3085 31.5698 13.6815 28.739 12.2747C28.0796 11.947 27.8107 11.1468 28.1384 10.4873Z" fill="white"/>
<path d="M23.9991 12.5001C18.8595 12.5001 14.6209 16.4889 14.6209 21.8335V26.0458C14.6209 26.5517 14.5421 27.0537 14.3878 27.5322L13.4032 30.5876C13.1183 31.4715 13.7383 32.4999 14.7908 32.4999H33.15C34.1446 32.4999 34.8506 31.5307 34.5456 30.584L33.5542 27.5079C33.405 27.0448 33.329 26.5611 33.329 26.0745V21.8335C33.329 16.6681 29.1659 12.5001 23.9991 12.5001Z" fill="white"/>
<path d="M19.6216 34.8311C20.8285 35.8768 22.3481 36.5 23.9991 36.5C25.6501 36.5 27.1697 35.8768 28.3766 34.8311C28.7986 34.4655 28.5072 33.8333 27.9488 33.8333H20.0494C19.491 33.8333 19.1996 34.4655 19.6216 34.8311Z" fill="white"/>
</svg>
