<svg width="48" height="49" viewBox="0 0 48 49" fill="none" xmlns="http://www.w3.org/2000/svg">
<rect y="0.5" width="48" height="48" rx="24" fill="#437EF7"/>
<path d="M21.3327 16.4999C21.3327 15.0272 22.5266 13.8333 23.9993 13.8333C25.4721 13.8333 26.666 15.0272 26.666 16.4999V32.4999C26.666 33.9727 25.4721 35.1666 23.9993 35.1666C22.5266 35.1666 21.3327 33.9727 21.3327 32.4999V16.4999Z" fill="white"/>
<path d="M10.666 27.1666C10.666 25.6938 11.8599 24.4999 13.3327 24.4999C14.8054 24.4999 15.9993 25.6938 15.9993 27.1666V32.4999C15.9993 33.9727 14.8054 35.1666 13.3327 35.1666C11.8599 35.1666 10.666 33.9727 10.666 32.4999V27.1666Z" fill="white"/>
<path d="M34.666 19.1666C33.1933 19.1666 31.9993 20.3605 31.9993 21.8333V32.4999C31.9993 33.9727 33.1933 35.1666 34.666 35.1666C36.1388 35.1666 37.3327 33.9727 37.3327 32.4999V21.8333C37.3327 20.3605 36.1388 19.1666 34.666 19.1666Z" fill="white"/>
</svg>
