<svg width="20" height="21" viewBox="0 0 20 21" fill="none" xmlns="http://www.w3.org/2000/svg">
<path d="M13.334 3.83341C13.334 4.75389 11.0954 5.50008 8.33398 5.50008C5.57256 5.50008 3.33398 4.75389 3.33398 3.83341M13.334 3.83341C13.334 2.91294 11.0954 2.16675 8.33398 2.16675C5.57256 2.16675 3.33398 2.91294 3.33398 3.83341M13.334 3.83341V7.16675M3.33398 3.83341V7.16675C3.33398 8.08722 5.57256 8.83341 8.33398 8.83341C11.0954 8.83341 13.334 8.08722 13.334 7.16675M16.6673 8.73858C16.6673 9.65905 14.4287 10.4052 11.6673 10.4052C8.90589 10.4052 6.66732 9.65905 6.66732 8.73858V12.0719M16.6673 8.73858C16.6673 8.0129 15.276 7.39555 13.334 7.16675M16.6673 8.73858V12.0719C16.6673 12.9924 14.4287 13.7386 11.6673 13.7386C8.90589 13.7386 6.66732 12.9924 6.66732 12.0719M3.33398 13.6438C3.33398 14.5642 5.57256 15.3104 8.33398 15.3104C11.0954 15.3104 13.334 14.5642 13.334 13.6438V16.9771C13.334 17.8976 11.0954 18.6438 8.33398 18.6438C5.57256 18.6438 3.33398 17.8976 3.33398 16.9771V13.6438ZM3.33398 13.6438C3.33398 12.9181 4.72533 12.3007 6.66732 12.0719" stroke="#272D37" stroke-width="1.67"/>
</svg>
