<svg width="20" height="21" viewBox="0 0 20 21" fill="none" xmlns="http://www.w3.org/2000/svg">
<path d="M6.00065 2.16675L6.00065 3.00175L6.00065 2.16675ZM16.6673 4.83342L15.8323 4.83342V4.83342H16.6673ZM16.6673 16.1667L17.5023 16.1667V16.1667H16.6673ZM16.4857 17.9234L17.2297 18.3025L17.2297 18.3025L16.4857 17.9234ZM14.0007 18.8334L14.0007 17.9984H14.0007V18.8334ZM15.7573 18.6518L16.1364 19.3958L16.1364 19.3958L15.7573 18.6518ZM15.7573 2.3484L16.1364 1.60441L16.1364 1.60441L15.7573 2.3484ZM16.4857 3.07676L15.7417 3.45585L15.7417 3.45585L16.4857 3.07676ZM4.244 2.3484L4.62308 3.09239L4.62308 3.09239L4.244 2.3484ZM3.33399 4.83342L2.49899 4.83342L3.33399 4.83342ZM3.51564 3.07676L4.25963 3.45585L4.25963 3.45585L3.51564 3.07676ZM2.49898 13.8334C2.49898 14.2946 2.87283 14.6684 3.33398 14.6684C3.79514 14.6684 4.16898 14.2946 4.16898 13.8334L2.49898 13.8334ZM8.33398 17.9984C7.87283 17.9984 7.49898 18.3723 7.49898 18.8334C7.49898 19.2946 7.87283 19.6684 8.33398 19.6684V17.9984ZM3.47624 13.9757L4.06668 13.3852L4.06668 13.3852L3.47624 13.9757ZM8.19173 18.6912L7.60129 19.2816L7.60129 19.2816L8.19173 18.6912ZM3.53517 13.8334L3.53517 14.6684H3.53517V13.8334ZM7.50065 13.8334L7.50065 12.9984H7.50065V13.8334ZM8.33399 14.6667L7.49899 14.6667V14.6667H8.33399ZM8.33399 18.6322L9.16899 18.6322V18.6322H8.33399ZM13.334 11.3351C13.7951 11.3351 14.169 10.9612 14.169 10.5001C14.169 10.0389 13.7951 9.66508 13.334 9.66508V11.3351ZM6.66732 9.66508C6.20616 9.66508 5.83232 10.0389 5.83232 10.5001C5.83232 10.9612 6.20616 11.3351 6.66732 11.3351V9.66508ZM13.334 14.6684C13.7951 14.6684 14.169 14.2946 14.169 13.8334C14.169 13.3723 13.7951 12.9984 13.334 12.9984V14.6684ZM11.6673 12.9984C11.2062 12.9984 10.8323 13.3723 10.8323 13.8334C10.8323 14.2946 11.2062 14.6684 11.6673 14.6684V12.9984ZM13.334 8.00175C13.7951 8.00175 14.169 7.62791 14.169 7.16675C14.169 6.70559 13.7951 6.33175 13.334 6.33175V8.00175ZM6.66732 6.33175C6.20616 6.33175 5.83232 6.70559 5.83232 7.16675C5.83232 7.62791 6.20616 8.00175 6.66732 8.00175V6.33175ZM6.00065 3.00175L14.0007 3.00175L14.0007 1.33175L6.00065 1.33175L6.00065 3.00175ZM15.8323 4.83342V16.1667H17.5023V4.83342H15.8323ZM15.8323 16.1667C15.8323 16.6472 15.8317 16.9574 15.8124 17.1934C15.7939 17.4197 15.7625 17.5034 15.7417 17.5443L17.2297 18.3025C17.3905 17.9869 17.4499 17.659 17.4768 17.3294C17.503 17.0096 17.5023 16.6197 17.5023 16.1667L15.8323 16.1667ZM14.0007 19.6684C14.4536 19.6684 14.8435 19.6691 15.1633 19.6429C15.4929 19.616 15.8208 19.5566 16.1364 19.3958L15.3782 17.9078C15.3373 17.9286 15.2536 17.96 15.0273 17.9785C14.7913 17.9978 14.4811 17.9984 14.0007 17.9984L14.0007 19.6684ZM15.7417 17.5443C15.6619 17.7008 15.5347 17.828 15.3782 17.9078L16.1364 19.3958C16.6071 19.1559 16.9898 18.7732 17.2297 18.3025L15.7417 17.5443ZM14.0007 3.00175C14.4811 3.00175 14.7913 3.0024 15.0273 3.02168C15.2536 3.04017 15.3373 3.07154 15.3782 3.09239L16.1364 1.60441C15.8208 1.44361 15.4929 1.38415 15.1633 1.35723C14.8435 1.3311 14.4536 1.33175 14.0007 1.33175L14.0007 3.00175ZM17.5023 4.83342C17.5023 4.38048 17.503 3.99057 17.4768 3.67076C17.4499 3.3412 17.3905 3.01327 17.2297 2.69768L15.7417 3.45585C15.7625 3.49678 15.7939 3.58046 15.8124 3.80675C15.8317 4.04278 15.8323 4.35293 15.8323 4.83342L17.5023 4.83342ZM15.3782 3.09239C15.5347 3.17213 15.6619 3.29936 15.7417 3.45585L17.2297 2.69768C16.9898 2.22696 16.6071 1.84426 16.1364 1.60441L15.3782 3.09239ZM6.00065 1.33175C5.54772 1.33175 5.1578 1.3311 4.83799 1.35723C4.50844 1.38415 4.18051 1.44361 3.86492 1.60441L4.62308 3.09239C4.66401 3.07154 4.7477 3.04017 4.97398 3.02168C5.21002 3.0024 5.52016 3.00175 6.00065 3.00175L6.00065 1.33175ZM4.16899 4.83342C4.16899 4.35293 4.16963 4.04278 4.18892 3.80675C4.20741 3.58046 4.23878 3.49677 4.25963 3.45585L2.77165 2.69768C2.61085 3.01327 2.55139 3.3412 2.52447 3.67076C2.49834 3.99057 2.49899 4.38048 2.49899 4.83342L4.16899 4.83342ZM3.86492 1.60441C3.3942 1.84426 3.01149 2.22696 2.77165 2.69768L4.25963 3.45585C4.33937 3.29936 4.4666 3.17213 4.62308 3.09239L3.86492 1.60441ZM4.16898 13.8334L4.16899 4.83342L2.49899 4.83342L2.49898 13.8334L4.16898 13.8334ZM14.0007 17.9984H8.33398V19.6684H14.0007V17.9984ZM2.88581 14.5661L7.60129 19.2816L8.78216 18.1007L4.06668 13.3852L2.88581 14.5661ZM3.53517 14.6684H7.50065V12.9984H3.53517V14.6684ZM7.49899 14.6667V18.6322H9.16899V14.6667H7.49899ZM7.50065 14.6684C7.50196 14.6684 7.50111 14.6685 7.49975 14.6679C7.49894 14.6676 7.49902 14.6675 7.49947 14.6679C7.49993 14.6684 7.4998 14.6685 7.49946 14.6677C7.49888 14.6663 7.49899 14.6654 7.49899 14.6667L9.16899 14.6667C9.16899 13.7454 8.42205 12.9984 7.50065 12.9984L7.50065 14.6684ZM7.60129 19.2816C8.17981 19.8601 9.16899 19.4504 9.16899 18.6322L7.49899 18.6322C7.49899 17.9626 8.30863 17.6272 8.78216 18.1007L7.60129 19.2816ZM4.06668 13.3852C4.5402 13.8588 4.20483 14.6684 3.53517 14.6684L3.53517 12.9984C2.71702 12.9984 2.30729 13.9876 2.88581 14.5661L4.06668 13.3852ZM13.334 9.66508H6.66732V11.3351H13.334V9.66508ZM13.334 12.9984H11.6673V14.6684H13.334V12.9984ZM13.334 6.33175H6.66732V8.00175H13.334V6.33175Z" fill="#272D37"/>
</svg>
