<svg width="20" height="21" viewBox="0 0 20 21" fill="none" xmlns="http://www.w3.org/2000/svg">
<path d="M6.66606 3.8335H13.3327M9.99939 18.8335V10.5002M6.98035 7.16683H13.0184C13.2045 7.16683 13.368 7.29015 13.4191 7.46903L14.9378 12.7847C14.9763 12.9192 14.9446 13.0641 14.8535 13.1703L10.3158 18.4644C10.1495 18.6584 9.84933 18.6584 9.68304 18.4644L5.14524 13.1703C5.05418 13.0641 5.02252 12.9192 5.06096 12.7847L6.57972 7.46903C6.63083 7.29015 6.79432 7.16683 6.98035 7.16683ZM10.8327 10.5002C10.8327 10.9604 10.4596 11.3335 9.99939 11.3335C9.53916 11.3335 9.16606 10.9604 9.16606 10.5002C9.16606 10.0399 9.53916 9.66683 9.99939 9.66683C10.4596 9.66683 10.8327 10.0399 10.8327 10.5002Z" stroke="#272D37" stroke-width="1.67" stroke-linecap="round"/>
</svg>
