<svg width="20" height="21" viewBox="0 0 20 21" fill="none" xmlns="http://www.w3.org/2000/svg">
<path d="M7.4842 8.62922C8.01415 9.73299 8.73658 10.7675 9.6515 11.6824C10.5664 12.5973 11.6009 13.3198 12.7047 13.8497C12.7996 13.8953 12.8471 13.9181 12.9072 13.9356C13.1206 13.9978 13.3828 13.9531 13.5636 13.8237C13.6144 13.7872 13.6579 13.7437 13.745 13.6567C14.0112 13.3905 14.1443 13.2574 14.2781 13.1704C14.7829 12.8422 15.4336 12.8422 15.9383 13.1704C16.0721 13.2574 16.2053 13.3905 16.4714 13.6567L16.6198 13.8051C17.0245 14.2097 17.2268 14.412 17.3367 14.6293C17.5553 15.0615 17.5553 15.5718 17.3367 16.004C17.2268 16.2213 17.0245 16.4236 16.6198 16.8283L16.4998 16.9483C16.0965 17.3516 15.8949 17.5532 15.6208 17.7072C15.3166 17.8781 14.8441 18.001 14.4952 17.9999C14.1808 17.999 13.9659 17.938 13.5361 17.816C11.2264 17.1604 9.04692 15.9235 7.22865 14.1052C5.41039 12.287 4.17347 10.1075 3.51791 7.7978C3.39592 7.36802 3.33493 7.15313 3.33399 6.8387C3.33295 6.4898 3.45582 6.01734 3.6267 5.71314C3.78069 5.43901 3.98233 5.23737 4.3856 4.8341L4.50562 4.71408C4.91028 4.30942 5.1126 4.1071 5.3299 3.99719C5.76206 3.77861 6.27241 3.77861 6.70457 3.99719C6.92186 4.1071 7.12419 4.30942 7.52884 4.71408L7.67722 4.86246C7.94342 5.12866 8.07652 5.26175 8.16354 5.3956C8.49171 5.90034 8.49171 6.55104 8.16354 7.05578C8.07652 7.18962 7.94342 7.32272 7.67722 7.58892C7.59018 7.67596 7.54666 7.71948 7.51024 7.77035C7.38079 7.95114 7.33609 8.21326 7.39831 8.42673C7.41583 8.4868 7.43862 8.53427 7.4842 8.62922Z" stroke="#272D37" stroke-width="1.67" stroke-linecap="round" stroke-linejoin="round"/>
</svg>
