<svg width="28" height="28" viewBox="0 0 28 28" fill="none" xmlns="http://www.w3.org/2000/svg">
<path d="M15.9429 3.59124L17.8697 7.65793C18.1855 8.32367 18.7953 8.78506 19.5008 8.89193L23.8099 9.54414C25.5865 9.81296 26.296 12.0866 25.0103 13.3918L21.8912 16.5568C21.3808 17.0751 21.1479 17.8219 21.2683 18.5537L22.0044 23.0233C22.3082 24.8662 20.4506 26.2712 18.8621 25.4014L15.0078 23.2923C14.3768 22.9467 13.6228 22.9467 12.9917 23.2923L9.13747 25.4028C7.54891 26.2726 5.69138 24.866 5.99519 23.0247L6.73121 18.5551C6.85223 17.8229 6.61909 17.0755 6.10831 16.5568L2.99007 13.3914C1.70433 12.0862 2.41382 9.81261 4.19041 9.54378L8.49951 8.89157C9.20509 8.78469 9.81485 8.32326 10.1307 7.65757L12.0567 3.5913C12.8521 1.91402 15.1475 1.91397 15.9429 3.59124Z" fill="#FFAE43"/>
</svg>
