<svg width="49" height="48" viewBox="0 0 49 48" fill="none" xmlns="http://www.w3.org/2000/svg">
<rect x="0.166748" width="48" height="48" rx="24" fill="#F5FAFF"/>
<path d="M10.8335 20.2667C10.8335 18.7732 10.8335 18.0265 11.1241 17.456C11.3798 16.9543 11.7878 16.5463 12.2895 16.2906C12.86 16 13.6067 16 15.1002 16H25.2335C26.727 16 27.4737 16 28.0441 16.2906C28.5459 16.5463 28.9539 16.9543 29.2095 17.456C29.5002 18.0265 29.5002 18.7732 29.5002 20.2667V27.7333C29.5002 29.2268 29.5002 29.9735 29.2095 30.544C28.9539 31.0457 28.5459 31.4537 28.0441 31.7094C27.4737 32 26.727 32 25.2335 32H15.1002C13.6067 32 12.86 32 12.2895 31.7094C11.7878 31.4537 11.3798 31.0457 11.1241 30.544C10.8335 29.9735 10.8335 29.2268 10.8335 27.7333V20.2667Z" fill="#437EF7"/>
<path d="M36.1668 23.253V24.747C36.1668 26.7456 36.1668 27.7449 35.7484 28.4009C35.3822 28.9751 34.8102 29.3874 34.1496 29.5532C33.4335 29.7331 32.5431 29.4576 30.8335 28.8888V19.1112C32.5431 18.5424 33.4334 18.2669 34.1496 18.4468C34.8102 18.6126 35.3822 19.0249 35.7484 19.5991C36.1668 20.2551 36.1668 21.2544 36.1668 23.253Z" fill="#437EF7"/>
</svg>
