<svg width="20" height="21" viewBox="0 0 20 21" fill="none" xmlns="http://www.w3.org/2000/svg">
<path d="M13.3327 6.57143L6.66602 9.42857M6.66602 11.5714L13.3327 14.4286M6.66602 10.5C6.66602 11.8807 5.54673 13 4.16602 13C2.7853 13 1.66602 11.8807 1.66602 10.5C1.66602 9.11929 2.7853 8 4.16602 8C5.54673 8 6.66602 9.11929 6.66602 10.5ZM18.3327 5.5C18.3327 6.88071 17.2134 8 15.8327 8C14.452 8 13.3327 6.88071 13.3327 5.5C13.3327 4.11929 14.452 3 15.8327 3C17.2134 3 18.3327 4.11929 18.3327 5.5ZM18.3327 15.5C18.3327 16.8807 17.2134 18 15.8327 18C14.452 18 13.3327 16.8807 13.3327 15.5C13.3327 14.1193 14.452 13 15.8327 13C17.2134 13 18.3327 14.1193 18.3327 15.5Z" stroke="#272D37" stroke-width="1.67" stroke-linecap="round"/>
</svg>
