<svg width="25" height="24" viewBox="0 0 25 24" fill="none" xmlns="http://www.w3.org/2000/svg">
<path d="M17.6003 8.66347C19.1436 9.77064 21.0343 10.4221 23.0763 10.4221V6.47861C22.6899 6.47869 22.3044 6.43825 21.9263 6.35786V9.46193C19.8845 9.46193 17.994 8.81049 16.4503 7.7034V15.7509C16.4503 19.7766 13.1984 23.0399 9.18716 23.0399C7.69049 23.0399 6.29938 22.5858 5.1438 21.807C6.46271 23.1604 8.30203 24 10.3369 24C14.3484 24 17.6005 20.7367 17.6005 16.7108V8.66347H17.6003ZM19.019 4.68499C18.2302 3.82023 17.7123 2.70267 17.6003 1.46717V0.959961H16.5105C16.7848 2.53028 17.7205 3.87187 19.019 4.68499ZM7.68089 18.7178C7.24021 18.1379 7.00207 17.4286 7.00314 16.6992C7.00314 14.858 8.49054 13.3651 10.3256 13.3651C10.6676 13.365 11.0075 13.4176 11.3334 13.5214V9.48977C10.9526 9.43739 10.5682 9.41515 10.1839 9.4233V12.5613C9.85777 12.4575 9.51767 12.4048 9.17559 12.4051C7.34054 12.4051 5.85321 13.8979 5.85321 15.7393C5.85321 17.0414 6.59667 18.1687 7.68089 18.7178Z" fill="white"/>
<path d="M16.4503 7.70332C17.9941 8.81041 19.8845 9.46185 21.9263 9.46185V6.35778C20.7866 6.11414 19.7776 5.5164 19.019 4.68499C17.7204 3.87179 16.7848 2.5302 16.5105 0.959961H13.6479V16.7106C13.6414 18.5468 12.1566 20.0336 10.3254 20.0336C9.2464 20.0336 8.28777 19.5174 7.68065 18.7178C6.59652 18.1687 5.85306 17.0413 5.85306 15.7394C5.85306 13.8981 7.34038 12.4052 9.17544 12.4052C9.52703 12.4052 9.8659 12.4602 10.1838 12.5614V9.42338C6.24304 9.50509 3.07373 12.7365 3.07373 16.7107C3.07373 18.6946 3.86296 20.4931 5.14389 21.8071C6.29948 22.5858 7.69058 23.04 9.18725 23.04C13.1985 23.04 16.4504 19.7765 16.4504 15.7509V7.70332H16.4503Z" fill="white"/>
<path d="M21.9264 6.3578V5.51848C20.8986 5.52005 19.891 5.23119 19.019 4.68493C19.7909 5.53306 20.8074 6.11787 21.9264 6.3578ZM16.5105 0.959983C16.4844 0.809911 16.4643 0.658851 16.4503 0.507214V0H12.4978V15.7508C12.4915 17.5868 11.0067 19.0736 9.17546 19.0736C8.63783 19.0736 8.13021 18.9455 7.68068 18.7179C8.2878 19.5174 9.24642 20.0336 10.3255 20.0336C12.1564 20.0336 13.6415 18.5469 13.6479 16.7107V0.959983H16.5105ZM10.184 9.42341V8.52989C9.85371 8.48459 9.52074 8.46186 9.18736 8.46202C5.17574 8.46194 1.92383 11.7254 1.92383 15.7508C1.92383 18.2745 3.20189 20.4987 5.144 21.807C3.86307 20.493 3.07384 18.6944 3.07384 16.7106C3.07384 12.7365 6.24306 9.50511 10.184 9.42341Z" fill="white"/>
</svg>
