<svg width="49" height="48" viewBox="0 0 49 48" fill="none" xmlns="http://www.w3.org/2000/svg">
<rect x="0.5" width="48" height="48" rx="5" fill="#F5FAFF"/>
<path d="M17.8333 17.3333C17.8333 14.3877 20.2211 11.9999 23.1667 11.9999C26.1122 11.9999 28.5 14.3877 28.5 17.3333C28.5 18.0696 29.097 18.6666 29.8333 18.6666C30.5697 18.6666 31.1667 18.0696 31.1667 17.3333C31.1667 12.915 27.5849 9.33325 23.1667 9.33325C18.7484 9.33325 15.1667 12.915 15.1667 17.3333C15.1667 18.4686 15.404 19.552 15.8329 20.5337C16.1277 21.2085 16.9138 21.5165 17.5886 21.2217C18.2633 20.9269 18.5714 20.1409 18.2765 19.4661C17.9919 18.8146 17.8333 18.0942 17.8333 17.3333Z" fill="#437EF7"/>
<path d="M35.07 27.3575L32.5476 38.6666L20.5032 38.6666L19.6758 36.1936C19.1038 34.4841 17.8737 33.071 16.256 32.2651L13.9892 31.1359C12.7904 30.5387 12.2148 29.1542 12.6386 27.8874C13.1569 26.3383 14.9322 25.6056 16.3981 26.3359L20.5032 28.3809L20.5 17.3333C20.5 15.9131 21.7412 14.6666 23.1667 14.6666C24.5921 14.6666 25.8333 15.8179 25.8333 17.238V21.3333L31.8109 22.5442C34.0813 22.9212 35.5694 25.1189 35.07 27.3575Z" fill="#437EF7"/>
</svg>
