<svg width="32" height="32" viewBox="0 0 32 32" fill="none" xmlns="http://www.w3.org/2000/svg">
<rect x="0.5" y="0.5" width="31" height="31" rx="15.5" fill="white"/>
<path d="M13.3335 14V12.6667C13.3335 11.1939 14.5274 10 16.0002 10C17.4729 10 18.6668 11.1939 18.6668 12.6667V14M13.4668 22H18.5335C19.2802 22 19.6536 22 19.9388 21.8547C20.1897 21.7268 20.3937 21.5229 20.5215 21.272C20.6668 20.9868 20.6668 20.6134 20.6668 19.8667V16.1333C20.6668 15.3866 20.6668 15.0132 20.5215 14.728C20.3937 14.4771 20.1897 14.2732 19.9388 14.1453C19.6536 14 19.2802 14 18.5335 14H13.4668C12.7201 14 12.3467 14 12.0615 14.1453C11.8106 14.2732 11.6067 14.4771 11.4788 14.728C11.3335 15.0132 11.3335 15.3866 11.3335 16.1333V19.8667C11.3335 20.6134 11.3335 20.9868 11.4788 21.272C11.6067 21.5229 11.8106 21.7268 12.0615 21.8547C12.3467 22 12.7201 22 13.4668 22Z" stroke="#437EF7" stroke-width="2" stroke-linecap="round"/>
<rect x="0.5" y="0.5" width="31" height="31" rx="15.5" stroke="#648EF7"/>
</svg>
