<svg width="20" height="21" viewBox="0 0 20 21" fill="none" xmlns="http://www.w3.org/2000/svg">
<path d="M15.7573 9.01515L15.3782 9.75914L15.7573 9.01515ZM16.4857 9.74351L15.7417 10.1226L16.4857 9.74351ZM4.244 9.01515L4.62308 9.75914L4.244 9.01515ZM3.51564 9.74351L4.25963 10.1226L3.51564 9.74351ZM4.244 16.9852L4.62308 16.2412L4.244 16.9852ZM3.51564 16.2568L4.25963 15.8777L3.51564 16.2568ZM16.4857 16.2568L15.7417 15.8777L16.4857 16.2568ZM15.7573 16.9852L15.3782 16.2412L15.7573 16.9852ZM5.83232 17.1668C5.83232 17.628 6.20616 18.0018 6.66732 18.0018C7.12848 18.0018 7.50232 17.628 7.50232 17.1668H5.83232ZM7.50232 15.5002C7.50232 15.039 7.12848 14.6652 6.66732 14.6652C6.20616 14.6652 5.83232 15.039 5.83232 15.5002H7.50232ZM9.16565 17.1668C9.16565 17.628 9.53949 18.0018 10.0007 18.0018C10.4618 18.0018 10.8357 17.628 10.8357 17.1668H9.16565ZM10.8357 15.5002C10.8357 15.039 10.4618 14.6652 10.0007 14.6652C9.53949 14.6652 9.16565 15.039 9.16565 15.5002H10.8357ZM12.499 17.1668C12.499 17.628 12.8728 18.0018 13.334 18.0018C13.7951 18.0018 14.169 17.628 14.169 17.1668H12.499ZM14.169 15.5002C14.169 15.039 13.7951 14.6652 13.334 14.6652C12.8728 14.6652 12.499 15.039 12.499 15.5002H14.169ZM9.16565 8.8335C9.16565 9.29465 9.53949 9.6685 10.0007 9.6685C10.4618 9.6685 10.8357 9.29465 10.8357 8.8335H9.16565ZM10.8357 3.8335C10.8357 3.37234 10.4618 2.9985 10.0007 2.9985C9.53949 2.9985 9.16565 3.37234 9.16565 3.8335H10.8357ZM6.00065 9.6685H14.0007V7.9985H6.00065V9.6685ZM15.8323 11.5002V12.1668H17.5023V11.5002H15.8323ZM16.6673 11.3318H3.33398V13.0018H16.6673V11.3318ZM4.16898 12.1668V11.5002H2.49898V12.1668H4.16898ZM14.0007 9.6685C14.4811 9.6685 14.7913 9.66915 15.0273 9.68843C15.2536 9.70692 15.3373 9.73829 15.3782 9.75914L16.1364 8.27116C15.8208 8.11036 15.4929 8.0509 15.1633 8.02398C14.8435 7.99785 14.4536 7.9985 14.0007 7.9985V9.6685ZM17.5023 11.5002C17.5023 11.0472 17.503 10.6573 17.4768 10.3375C17.4499 10.0079 17.3905 9.68002 17.2297 9.36443L15.7417 10.1226C15.7625 10.1635 15.7939 10.2472 15.8124 10.4735C15.8317 10.7095 15.8323 11.0197 15.8323 11.5002H17.5023ZM15.3782 9.75914C15.5347 9.83888 15.6619 9.96611 15.7417 10.1226L17.2297 9.36443C16.9898 8.89371 16.6071 8.511 16.1364 8.27116L15.3782 9.75914ZM6.00065 7.9985C5.54772 7.9985 5.1578 7.99785 4.83799 8.02398C4.50843 8.0509 4.18051 8.11036 3.86492 8.27116L4.62308 9.75914C4.66401 9.73829 4.7477 9.70692 4.97398 9.68843C5.21001 9.66915 5.52016 9.6685 6.00065 9.6685V7.9985ZM4.16898 11.5002C4.16898 11.0197 4.16963 10.7095 4.18892 10.4735C4.20741 10.2472 4.23878 10.1635 4.25963 10.1226L2.77165 9.36443C2.61085 9.68002 2.55139 10.0079 2.52446 10.3375C2.49834 10.6573 2.49898 11.0472 2.49898 11.5002H4.16898ZM3.86492 8.27116C3.3942 8.511 3.01149 8.89371 2.77165 9.36443L4.25963 10.1226C4.33937 9.96611 4.46659 9.83888 4.62308 9.75914L3.86492 8.27116ZM15.8323 12.1668V14.5002H17.5023V12.1668H15.8323ZM14.0007 16.3318H6.00065V18.0018H14.0007V16.3318ZM4.16898 14.5002V12.1668H2.49898V14.5002H4.16898ZM6.00065 16.3318C5.52016 16.3318 5.21001 16.3312 4.97398 16.3119C4.7477 16.2934 4.66401 16.262 4.62308 16.2412L3.86492 17.7292C4.18051 17.89 4.50843 17.9494 4.83799 17.9763C5.1578 18.0025 5.54772 18.0018 6.00065 18.0018V16.3318ZM2.49898 14.5002C2.49898 14.9531 2.49834 15.343 2.52446 15.6628C2.55139 15.9924 2.61085 16.3203 2.77165 16.6359L4.25963 15.8777C4.23878 15.8368 4.20741 15.7531 4.18892 15.5268C4.16963 15.2908 4.16898 14.9807 4.16898 14.5002H2.49898ZM4.62308 16.2412C4.46659 16.1614 4.33937 16.0342 4.25963 15.8777L2.77165 16.6359C3.01149 17.1066 3.3942 17.4893 3.86492 17.7292L4.62308 16.2412ZM15.8323 14.5002C15.8323 14.9807 15.8317 15.2908 15.8124 15.5268C15.7939 15.7531 15.7625 15.8368 15.7417 15.8777L17.2297 16.6359C17.3905 16.3203 17.4499 15.9924 17.4768 15.6628C17.503 15.343 17.5023 14.9531 17.5023 14.5002H15.8323ZM14.0007 18.0018C14.4536 18.0018 14.8435 18.0025 15.1633 17.9763C15.4929 17.9494 15.8208 17.89 16.1364 17.7292L15.3782 16.2412C15.3373 16.262 15.2536 16.2934 15.0273 16.3119C14.7913 16.3312 14.4811 16.3318 14.0007 16.3318V18.0018ZM15.7417 15.8777C15.6619 16.0342 15.5347 16.1614 15.3782 16.2412L16.1364 17.7292C16.6071 17.4893 16.9898 17.1066 17.2297 16.6359L15.7417 15.8777ZM7.50232 17.1668V15.5002H5.83232V17.1668H7.50232ZM10.8357 17.1668V15.5002H9.16565V17.1668H10.8357ZM14.169 17.1668V15.5002H12.499V17.1668H14.169ZM10.8357 8.8335V3.8335H9.16565V8.8335H10.8357Z" fill="#272D37"/>
</svg>
