<svg width="20" height="21" viewBox="0 0 20 21" fill="none" xmlns="http://www.w3.org/2000/svg">
<path d="M16.2527 15.51L17.0628 15.3075L17.0628 15.3075L16.2527 15.51ZM16.086 14.8433L15.276 15.0458L15.276 15.0458L16.086 14.8433ZM3.9144 14.8433L3.10433 14.6408L3.10433 14.6408L3.9144 14.8433ZM3.74773 15.51L4.5578 15.7125L4.5578 15.7125L3.74773 15.51ZM4.49475 13.8984L4.17132 13.1286L4.17132 13.1286L4.49475 13.8984ZM4.15048 14.1672L4.81887 14.6677L4.81887 14.6677L4.15048 14.1672ZM15.85 14.1672L15.1816 14.6677L15.1816 14.6677L15.85 14.1672ZM15.5057 13.8984L15.8291 13.1286L15.8291 13.1286L15.5057 13.8984ZM16.0314 17.0461L15.5987 16.3319L15.5987 16.3319L16.0314 17.0461ZM16.3957 16.5794L17.1935 16.826L17.1935 16.826L16.3957 16.5794ZM3.96904 17.0461L4.40173 16.3319L4.40173 16.3319L3.96904 17.0461ZM3.60469 16.5794L4.40246 16.3329L4.40246 16.3329L3.60469 16.5794ZM9.40394 3.29817L9.03051 2.55132L9.03051 2.55132L9.40394 3.29817ZM4.52612 5.73708L4.89955 6.48392L4.89955 6.48392L4.52612 5.73708ZM3.92984 7.52593L3.18299 7.89935L3.18299 7.89935L3.92984 7.52593ZM4.07476 7.81577L4.8216 7.44234L4.8216 7.44234L4.07476 7.81577ZM15.9257 7.81577L15.1788 7.44234L15.1788 7.44234L15.9257 7.81577ZM16.0706 7.52593L15.3238 7.15251L15.3238 7.15251L16.0706 7.52593ZM15.4743 5.73708L15.8477 4.99023L15.8477 4.99023L15.4743 5.73708ZM10.5965 3.29817L10.9699 2.55132L10.9699 2.55132L10.5965 3.29817ZM16.3822 6.69971L17.2171 6.69337L17.2171 6.69337L16.3822 6.69971ZM16.2193 6.21111L15.5475 6.70703L15.5475 6.70703L16.2193 6.21111ZM3.78114 6.21111L3.10936 5.7152L3.10936 5.7152L3.78114 6.21111ZM3.61828 6.69971L2.7833 6.69337L2.7833 6.69337L3.61828 6.69971ZM15.7727 7.98864L15.5005 7.19928L15.5005 7.19928L15.7727 7.98864ZM15.8506 7.94053L16.4348 8.53707L16.4348 8.53707L15.8506 7.94053ZM4.22771 7.98864L4.49998 7.19928L4.49998 7.19928L4.22771 7.98864ZM4.14987 7.94053L3.5656 8.53707L3.56561 8.53707L4.14987 7.94053ZM9.84656 3.11268L9.69258 2.292L9.84656 3.11268ZM10.1539 3.11268L10.3079 2.292L10.3079 2.292L10.1539 3.11268ZM4.99855 13C4.99855 13.4612 5.3724 13.835 5.83355 13.835C6.29471 13.835 6.66855 13.4612 6.66855 13H4.99855ZM6.66855 8.00003C6.66855 7.53887 6.29471 7.16503 5.83355 7.16503C5.3724 7.16503 4.99855 7.53887 4.99855 8.00003H6.66855ZM9.16522 13C9.16522 13.4612 9.53906 13.835 10.0002 13.835C10.4614 13.835 10.8352 13.4612 10.8352 13H9.16522ZM10.8352 8.83336C10.8352 8.3722 10.4614 7.99836 10.0002 7.99836C9.53906 7.99836 9.16522 8.3722 9.16522 8.83336H10.8352ZM13.3319 13C13.3319 13.4612 13.7057 13.835 14.1669 13.835C14.628 13.835 15.0019 13.4612 15.0019 13H13.3319ZM15.0019 8.83336C15.0019 8.3722 14.628 7.99836 14.1669 7.99836C13.7057 7.99836 13.3319 8.3722 13.3319 8.83336H15.0019ZM5.04126 18.0017H14.9592V16.3317H5.04126V18.0017ZM17.0628 15.3075L16.8961 14.6408L15.276 15.0458L15.4426 15.7125L17.0628 15.3075ZM14.7925 12.9984H5.20792V14.6684H14.7925V12.9984ZM3.10433 14.6408L2.93766 15.3075L4.5578 15.7125L4.72447 15.0458L3.10433 14.6408ZM5.20792 12.9984C4.91323 12.9984 4.51921 12.9824 4.17132 13.1286L4.81818 14.6682C4.7797 14.6844 4.76521 14.679 4.83006 14.6743C4.90541 14.6689 5.00989 14.6684 5.20792 14.6684V12.9984ZM4.72447 15.0458C4.7725 14.8537 4.79833 14.7525 4.82189 14.6807C4.84217 14.6189 4.84389 14.6343 4.81887 14.6677L3.48209 13.6667C3.25592 13.9688 3.1758 14.3549 3.10433 14.6408L4.72447 15.0458ZM4.17132 13.1286C3.89782 13.2435 3.6599 13.4293 3.48209 13.6667L4.81887 14.6677L4.81818 14.6682L4.17132 13.1286ZM16.8961 14.6408C16.8246 14.3549 16.7445 13.9688 16.5184 13.6667L15.1816 14.6677C15.1566 14.6343 15.1583 14.6189 15.1786 14.6807C15.2021 14.7525 15.2279 14.8537 15.276 15.0458L16.8961 14.6408ZM14.7925 14.6684C14.9906 14.6684 15.095 14.6689 15.1704 14.6743C15.2352 14.679 15.2207 14.6844 15.1823 14.6682L15.8291 13.1286C15.4812 12.9824 15.0872 12.9984 14.7925 12.9984V14.6684ZM16.5184 13.6667C16.3405 13.4293 16.1026 13.2435 15.8291 13.1286L15.1823 14.6682L15.1816 14.6677L16.5184 13.6667ZM14.9592 18.0017C15.2349 18.0017 15.4967 18.0025 15.7125 17.9834C15.9346 17.9637 16.2052 17.9171 16.4641 17.7602L15.5987 16.3319C15.6585 16.2957 15.6841 16.3094 15.5653 16.3199C15.4404 16.3309 15.2656 16.3317 14.9592 16.3317V18.0017ZM15.4426 15.7125C15.5169 16.0097 15.5586 16.1795 15.5782 16.3034C15.5968 16.4212 15.5773 16.3997 15.598 16.3329L17.1935 16.826C17.2829 16.5368 17.2625 16.2629 17.2277 16.0427C17.1939 15.8287 17.1297 15.575 17.0628 15.3075L15.4426 15.7125ZM16.4641 17.7602C16.8134 17.5486 17.0729 17.2162 17.1935 16.826L15.598 16.3329C15.5981 16.3325 15.5984 16.3321 15.5987 16.3319L16.4641 17.7602ZM5.04126 16.3317C4.73488 16.3317 4.56009 16.3309 4.4351 16.3199C4.31633 16.3094 4.3419 16.2957 4.40173 16.3319L3.53636 17.7602C3.79526 17.9171 4.06588 17.9637 4.28793 17.9834C4.50375 18.0025 4.76553 18.0017 5.04126 18.0017V16.3317ZM2.93766 15.3075C2.87079 15.575 2.80655 15.8287 2.77273 16.0427C2.73794 16.2629 2.71754 16.5368 2.80693 16.826L4.40246 16.3329C4.42312 16.3997 4.40365 16.4212 4.42226 16.3034C4.44185 16.1795 4.4835 16.0097 4.5578 15.7125L2.93766 15.3075ZM4.40173 16.3319C4.40208 16.3321 4.40234 16.3325 4.40246 16.3329L2.80693 16.826C2.92752 17.2162 3.18706 17.5486 3.53636 17.7602L4.40173 16.3319ZM4.3729 8.83503H15.6275V7.16503H4.3729V8.83503ZM9.03051 2.55132L4.1527 4.99023L4.89955 6.48392L9.77736 4.04502L9.03051 2.55132ZM3.18299 7.89935L3.32791 8.18919L4.8216 7.44234L4.67669 7.15251L3.18299 7.89935ZM16.6725 8.18919L16.8175 7.89935L15.3238 7.15251L15.1788 7.44234L16.6725 8.18919ZM15.8477 4.99023L10.9699 2.55132L10.2231 4.04502L15.1009 6.48392L15.8477 4.99023ZM16.8174 7.89935C16.9156 7.70296 17.0123 7.51103 17.08 7.34267C17.1513 7.16523 17.2191 6.94753 17.2171 6.69337L15.5472 6.70605C15.5468 6.65196 15.5631 6.63864 15.5304 6.71994C15.4941 6.81031 15.4343 6.93146 15.3238 7.15251L16.8174 7.89935ZM15.1009 6.48392C15.3219 6.59444 15.4425 6.65546 15.5258 6.70596C15.6007 6.7514 15.5796 6.75055 15.5475 6.70703L16.8911 5.7152C16.7401 5.51072 16.5553 5.37721 16.3918 5.27805C16.2366 5.18395 16.0441 5.08843 15.8477 4.99023L15.1009 6.48392ZM17.2171 6.69337C17.2145 6.34107 17.1003 5.99865 16.8911 5.7152L15.5475 6.70703C15.5473 6.70674 15.5472 6.7064 15.5472 6.70605L17.2171 6.69337ZM4.1527 4.99023C3.9563 5.08843 3.7638 5.18395 3.60865 5.27805C3.44514 5.37721 3.26031 5.51072 3.10936 5.7152L4.45293 6.70703C4.4208 6.75055 4.39974 6.7514 4.47465 6.70596C4.55793 6.65546 4.6785 6.59444 4.89955 6.48392L4.1527 4.99023ZM4.67669 7.15251C4.56616 6.93146 4.50631 6.81031 4.46999 6.71994C4.43732 6.63864 4.45367 6.65196 4.45325 6.70605L2.7833 6.69337C2.78137 6.94753 2.84914 7.16523 2.92044 7.34267C2.98811 7.51103 3.08479 7.70296 3.18299 7.89935L4.67669 7.15251ZM3.10936 5.7152C2.90012 5.99865 2.78598 6.34107 2.7833 6.69337L4.45325 6.70605C4.45325 6.7064 4.45314 6.70675 4.45293 6.70703L3.10936 5.7152ZM15.6275 8.83503C15.6418 8.83503 15.8481 8.84592 16.045 8.778L15.5005 7.19928C15.5809 7.17153 15.6449 7.16641 15.6638 7.16522C15.6723 7.1647 15.6752 7.16481 15.6669 7.16491C15.6585 7.16501 15.6477 7.16503 15.6275 7.16503V8.83503ZM15.1788 7.44234C15.1698 7.46038 15.165 7.47005 15.1611 7.47751C15.1574 7.48483 15.1585 7.4822 15.1628 7.47488C15.1723 7.45844 15.2055 7.40353 15.2663 7.344L16.4348 8.53707C16.5836 8.39132 16.6662 8.20195 16.6725 8.18919L15.1788 7.44234ZM16.045 8.778C16.1912 8.72758 16.3244 8.64528 16.4348 8.53707L15.2663 7.34399C15.3327 7.279 15.4126 7.22957 15.5005 7.19928L16.045 8.778ZM4.3729 7.16503C4.35274 7.16503 4.34191 7.16501 4.33352 7.16491C4.32529 7.16481 4.32816 7.1647 4.33662 7.16522C4.35559 7.16641 4.41955 7.17153 4.49998 7.19928L3.95544 8.778C4.15235 8.84592 4.35865 8.83503 4.3729 8.83503V7.16503ZM3.32791 8.18919C3.33428 8.20194 3.4168 8.39132 3.5656 8.53707L4.73414 7.34399C4.79492 7.40353 4.82811 7.45844 4.83765 7.47488C4.84191 7.48221 4.84309 7.48483 4.83931 7.47751C4.83547 7.47005 4.83062 7.46038 4.8216 7.44234L3.32791 8.18919ZM4.49998 7.19928C4.58779 7.22957 4.66777 7.279 4.73413 7.34399L3.56561 8.53707C3.67609 8.64528 3.80925 8.72758 3.95544 8.778L4.49998 7.19928ZM9.77736 4.04502C9.89432 3.98654 9.95345 3.95727 9.99738 3.93816C10.0333 3.92255 10.0263 3.92852 10.0005 3.93336L9.69258 2.292C9.43602 2.34013 9.20586 2.46365 9.03051 2.55132L9.77736 4.04502ZM10.9699 2.55132C10.7946 2.46365 10.5644 2.34013 10.3079 2.292L9.99991 3.93336C9.9741 3.92852 9.96718 3.92255 10.0031 3.93816C10.047 3.95727 10.1061 3.98654 10.2231 4.04502L10.9699 2.55132ZM10.0005 3.93336L9.99991 3.93336L10.3079 2.292C10.1045 2.25385 9.8959 2.25385 9.69258 2.292L10.0005 3.93336ZM6.66855 13V8.00003H4.99855V13H6.66855ZM10.8352 13V8.83336H9.16522V13H10.8352ZM15.0019 13V8.83336H13.3319V13H15.0019Z" fill="#272D37"/>
</svg>
