<svg width="48" height="48" viewBox="0 0 48 48" fill="none" xmlns="http://www.w3.org/2000/svg">
<rect width="48" height="48" rx="24" fill="#FFE4C0"/>
<path d="M18.6667 10.6661C17.3489 10.6671 16.6581 10.6839 16.1227 10.9567C15.6209 11.2123 15.213 11.6203 14.9573 12.122C14.6845 12.6575 14.6678 13.3482 14.6667 14.666C13.194 14.666 12 15.8599 12 17.3327C12 18.8054 13.1939 19.9993 14.6667 19.9993V27.9993C13.1939 27.9993 12 29.1933 12 30.666C12 32.1388 13.1939 33.3327 14.6667 33.3327C14.6677 34.6505 14.6845 35.3412 14.9573 35.8767C15.213 36.3784 15.6209 36.7864 16.1227 37.042C16.6581 37.3148 17.3489 37.3316 18.6667 37.3326V10.6661Z" fill="#D78100"/>
<path d="M21.3333 37.3327H30.4C31.8935 37.3327 32.6402 37.3327 33.2106 37.042C33.7124 36.7864 34.1204 36.3784 34.376 35.8767C34.6667 35.3062 34.6667 34.5595 34.6667 33.066V14.9327C34.6667 13.4392 34.6667 12.6925 34.376 12.122C34.1204 11.6203 33.7124 11.2123 33.2106 10.9567C32.6402 10.666 31.8935 10.666 30.4 10.666H21.3333V37.3327Z" fill="#D78100"/>
</svg>
