<svg width="20" height="20" viewBox="0 0 20 20" fill="none" xmlns="http://www.w3.org/2000/svg">
<g clip-path="url(#clip0_783_44214)">
<path d="M18.4597 19.8739C18.8502 20.2645 19.4834 20.2645 19.8739 19.8739C20.2645 19.4834 20.2645 18.8502 19.8739 18.4597L18.4597 19.8739ZM14.9315 8.38251C14.9315 11.9994 11.9994 14.9315 8.38251 14.9315V16.9315C13.104 16.9315 16.9315 13.104 16.9315 8.38251H14.9315ZM8.38251 14.9315C4.76559 14.9315 1.8335 11.9994 1.8335 8.38251H-0.166504C-0.166504 13.104 3.66102 16.9315 8.38251 16.9315V14.9315ZM1.8335 8.38251C1.8335 4.76559 4.76559 1.8335 8.38251 1.8335V-0.166504C3.66102 -0.166504 -0.166504 3.66102 -0.166504 8.38251H1.8335ZM8.38251 1.8335C11.9994 1.8335 14.9315 4.76559 14.9315 8.38251H16.9315C16.9315 3.66102 13.104 -0.166504 8.38251 -0.166504V1.8335ZM13.0676 14.4818L18.4597 19.8739L19.8739 18.4597L14.4818 13.0676L13.0676 14.4818Z" fill="#919BA7"/>
</g>
<defs>
<clipPath id="clip0_783_44214">
<rect width="20" height="20" fill="white"/>
</clipPath>
</defs>
</svg>
