<svg width="48" height="48" viewBox="0 0 48 48" fill="none" xmlns="http://www.w3.org/2000/svg">
<rect width="48" height="48" rx="24" fill="#C9EBCB"/>
<path d="M12.6667 16L16 16V31.7333C16 33.2268 16 33.9735 16.2906 34.544C16.4025 34.7635 16.5435 34.9651 16.7087 35.1438C16.7614 35.2007 16.8165 35.2553 16.8739 35.3075C17.3475 35.7377 17.9764 36 18.6667 36H33.3333C34.8061 36 36 34.8061 36 33.3333V32.6667C36 32.2985 35.7015 32 35.3333 32H21.3333C21.3333 32.7364 20.7364 33.3333 20 33.3333C19.2636 33.3333 18.6667 32.7364 18.6667 32V31.3333C18.6667 30.2288 19.5621 29.3333 20.6667 29.3333H32V16.2667C32 14.7732 32 14.0265 31.7093 13.456C31.4537 12.9543 31.0457 12.5463 30.544 12.2906C29.9735 12 29.2268 12 27.7333 12H14.6667C13.1939 12 12 13.1939 12 14.6667V15.3333C12 15.7015 12.2985 16 12.6667 16Z" fill="#2D8A39"/>
</svg>
