<svg width="49" height="48" viewBox="0 0 49 48" fill="none" xmlns="http://www.w3.org/2000/svg">
<rect x="0.5" width="48" height="48" rx="5" fill="#F5FAFF"/>
<path fill-rule="evenodd" clip-rule="evenodd" d="M25.8333 10.6666C25.8333 9.93021 25.2364 9.33325 24.5 9.33325C23.7636 9.33325 23.1667 9.93021 23.1667 10.6666V11.9999C19.4848 11.9999 16.5 14.9847 16.5 18.6666C16.5 22.3485 19.4848 25.3333 23.1667 25.3333V33.3333C20.9575 33.3333 19.1667 31.5424 19.1667 29.3333C19.1667 28.5969 18.5697 27.9999 17.8333 27.9999C17.097 27.9999 16.5 28.5969 16.5 29.3333C16.5 33.0151 19.4848 35.9999 23.1667 35.9999L23.1667 37.3333C23.1667 38.0696 23.7636 38.6666 24.5 38.6666C25.2364 38.6666 25.8333 38.0696 25.8333 37.3333L25.8333 35.9999C29.5152 35.9999 32.5 33.0151 32.5 29.3333C32.5 25.6514 29.5152 22.6666 25.8333 22.6666V14.6666C28.0425 14.6666 29.8333 16.4574 29.8333 18.6666C29.8333 19.403 30.4303 19.9999 31.1667 19.9999C31.903 19.9999 32.5 19.403 32.5 18.6666C32.5 14.9847 29.5152 11.9999 25.8333 11.9999V10.6666ZM29.8333 29.3333C29.8333 31.5424 28.0425 33.3333 25.8333 33.3333V25.3333C28.0425 25.3333 29.8333 27.1241 29.8333 29.3333ZM19.1667 18.6666C19.1667 16.4574 20.9575 14.6666 23.1667 14.6666V22.6666C20.9575 22.6666 19.1667 20.8757 19.1667 18.6666Z" fill="#437EF7"/>
</svg>
