<svg width="20" height="21" viewBox="0 0 20 21" fill="none" xmlns="http://www.w3.org/2000/svg">
<g clip-path="url(#clip0_605_24880)">
<path d="M3.10902 19.2124L3.48811 18.4685L3.10902 19.2124ZM1.28812 17.3915L2.03211 17.0125L1.28812 17.3915ZM15.3798 17.3915L14.6359 17.0125L15.3798 17.3915ZM13.5589 19.2124L13.1799 18.4685L13.5589 19.2124ZM13.5589 5.12072L13.1799 5.86472L13.5589 5.12072ZM15.3798 6.94162L14.6359 7.32071L15.3798 6.94162ZM3.10902 5.12072L3.48811 5.86472L3.10902 5.12072ZM1.28812 6.94162L2.03211 7.32071L1.28812 6.94162ZM15.834 15.4983C15.3728 15.4983 14.999 15.8721 14.999 16.3333C14.999 16.7944 15.3728 17.1683 15.834 17.1683V15.4983ZM3.33232 4.66658C3.33232 5.12774 3.70616 5.50158 4.16732 5.50158C4.62848 5.50158 5.00232 5.12774 5.00232 4.66658H3.33232ZM4.42325 14.0634C4.09012 14.3823 4.07858 14.9109 4.39747 15.244C4.71636 15.5771 5.24492 15.5887 5.57805 15.2698L4.42325 14.0634ZM11.0899 15.2698C11.423 15.5887 11.9516 15.5771 12.2705 15.244C12.5894 14.9109 12.5778 14.3823 12.2447 14.0634L11.0899 15.2698ZM7.50065 5.50158H9.16732V3.83158H7.50065V5.50158ZM14.999 11.3333V12.9999H16.669V11.3333H14.999ZM9.16732 18.8316H7.50065V20.5016H9.16732V18.8316ZM1.66898 12.9999V11.3333H-0.0010156V12.9999H1.66898ZM7.50065 18.8316C6.3201 18.8316 5.4849 18.8309 4.83199 18.7776C4.18882 18.725 3.79642 18.6255 3.48811 18.4685L2.72994 19.9564C3.31292 20.2535 3.94956 20.3811 4.696 20.442C5.43269 20.5022 6.34765 20.5016 7.50065 20.5016V18.8316ZM-0.0010156 12.9999C-0.0010156 14.1529 -0.00166499 15.0679 0.0585249 15.8046C0.119511 16.551 0.24709 17.1876 0.544133 17.7706L2.03211 17.0125C1.87502 16.7041 1.77553 16.3117 1.72298 15.6686C1.66963 15.0157 1.66898 14.1805 1.66898 12.9999H-0.0010156ZM3.48811 18.4685C2.86121 18.149 2.35153 17.6394 2.03211 17.0125L0.544133 17.7706C1.02366 18.7118 1.78882 19.4769 2.72994 19.9564L3.48811 18.4685ZM14.999 12.9999C14.999 14.1805 14.9983 15.0157 14.945 15.6686C14.8924 16.3117 14.7929 16.7041 14.6359 17.0125L16.1238 17.7706C16.4209 17.1876 16.5485 16.551 16.6094 15.8046C16.6696 15.0679 16.669 14.1529 16.669 12.9999H14.999ZM9.16732 20.5016C10.3203 20.5016 11.2353 20.5022 11.972 20.442C12.7184 20.3811 13.355 20.2535 13.938 19.9564L13.1799 18.4685C12.8715 18.6255 12.4791 18.725 11.836 18.7776C11.1831 18.8309 10.3479 18.8316 9.16732 18.8316V20.5016ZM14.6359 17.0125C14.3164 17.6394 13.8068 18.149 13.1799 18.4685L13.938 19.9564C14.8791 19.4769 15.6443 18.7118 16.1238 17.7706L14.6359 17.0125ZM9.16732 5.50158C10.3479 5.50158 11.1831 5.50223 11.836 5.55558C12.4791 5.60813 12.8715 5.70762 13.1799 5.86472L13.938 4.37673C13.355 4.07969 12.7184 3.95211 11.972 3.89113C11.2353 3.83094 10.3203 3.83158 9.16732 3.83158V5.50158ZM16.669 11.3333C16.669 10.1803 16.6696 9.26529 16.6094 8.5286C16.5485 7.78216 16.4209 7.14552 16.1238 6.56254L14.6359 7.32071C14.7929 7.62902 14.8924 8.02143 14.945 8.66459C14.9983 9.3175 14.999 10.1527 14.999 11.3333H16.669ZM13.1799 5.86472C13.8068 6.18413 14.3164 6.69381 14.6359 7.32071L16.1238 6.56254C15.6443 5.62142 14.8791 4.85626 13.938 4.37673L13.1799 5.86472ZM7.50065 3.83158C6.34765 3.83158 5.43269 3.83094 4.696 3.89113C3.94956 3.95211 3.31292 4.07969 2.72994 4.37673L3.48811 5.86472C3.79642 5.70762 4.18882 5.60813 4.83199 5.55558C5.4849 5.50223 6.3201 5.50158 7.50065 5.50158V3.83158ZM1.66898 11.3333C1.66898 10.1527 1.66963 9.3175 1.72298 8.66459C1.77553 8.02143 1.87502 7.62902 2.03211 7.32071L0.544133 6.56254C0.24709 7.14552 0.119511 7.78216 0.0585249 8.5286C-0.00166499 9.26529 -0.0010156 10.1803 -0.0010156 11.3333H1.66898ZM2.72994 4.37673C1.78882 4.85626 1.02366 5.62142 0.544133 6.56254L2.03211 7.32071C2.35153 6.69381 2.86121 6.18413 3.48811 5.86472L2.72994 4.37673ZM7.50065 2.16825H15.0006V0.498252H7.50065V2.16825ZM18.3323 5.49992V12.9999H20.0023V5.49992H18.3323ZM18.3323 12.9999C18.3323 14.3797 17.2138 15.4983 15.834 15.4983V17.1683C18.1361 17.1683 20.0023 15.302 20.0023 12.9999H18.3323ZM15.0006 2.16825C16.8407 2.16825 18.3323 3.65989 18.3323 5.49992H20.0023C20.0023 2.73757 17.763 0.498252 15.0006 0.498252V2.16825ZM7.50065 0.498252C5.19854 0.498252 3.33232 2.36448 3.33232 4.66658H5.00232C5.00232 3.28679 6.12086 2.16825 7.50065 2.16825V0.498252ZM5.57805 15.2698C7.09611 13.8166 9.57185 13.8166 11.0899 15.2698L12.2447 14.0634C10.0809 11.9921 6.58709 11.9921 4.42325 14.0634L5.57805 15.2698ZM9.73481 10.9473C9.73481 11.6197 9.15463 12.2264 8.36133 12.2264V13.8964C10.0074 13.8964 11.4048 12.6101 11.4048 10.9473H9.73481ZM8.36133 12.2264C7.56803 12.2264 6.98785 11.6197 6.98785 10.9473H5.31785C5.31785 12.6101 6.71522 13.8964 8.36133 13.8964V12.2264ZM6.98785 10.9473C6.98785 10.2749 7.56803 9.66825 8.36133 9.66825V7.99825C6.71522 7.99825 5.31785 9.28459 5.31785 10.9473H6.98785ZM8.36133 9.66825C9.15463 9.66825 9.73481 10.2749 9.73481 10.9473H11.4048C11.4048 9.28459 10.0074 7.99825 8.36133 7.99825V9.66825Z" fill="#272D37"/>
</g>
<defs>
<clipPath id="clip0_605_24880">
<rect width="20" height="20" fill="white" transform="translate(0 0.5)"/>
</clipPath>
</defs>
</svg>
