<svg width="49" height="48" viewBox="0 0 49 48" fill="none" xmlns="http://www.w3.org/2000/svg">
<rect x="0.5" width="48" height="48" rx="5" fill="#F5FAFF"/>
<path d="M29.2977 21.5788C29.5357 21.8168 29.7674 22.0485 29.9476 22.2608C30.1455 22.4939 30.3583 22.7897 30.4838 23.176C30.6578 23.7116 30.6578 24.2885 30.4838 24.8241C30.3583 25.2104 30.1455 25.5063 29.9476 25.7394C29.7674 25.9517 29.5357 26.1834 29.2977 26.4213L26.7761 28.9429C26.2554 29.4636 25.4112 29.4636 24.8905 28.9429C24.3698 28.4222 24.3698 27.578 24.8905 27.0573L26.6143 25.3334H13.8333C13.097 25.3334 12.5 24.7365 12.5 24.0001C12.5 23.2637 13.097 22.6667 13.8333 22.6667H26.6143L24.8905 20.9429C24.3698 20.4222 24.3698 19.578 24.8905 19.0573C25.4112 18.5366 26.2554 18.5366 26.7761 19.0573L29.2977 21.5788Z" fill="#437EF7"/>
<path d="M19.1667 14.9334C19.1667 13.4399 19.1667 12.6932 19.4573 12.1228C19.713 11.621 20.1209 11.2131 20.6227 10.9574C21.1931 10.6667 21.9399 10.6667 23.4333 10.6667H30.9C32.3935 10.6667 33.1402 10.6667 33.7106 10.9574C34.2124 11.2131 34.6204 11.621 34.876 12.1228C35.1667 12.6932 35.1667 13.4399 35.1667 14.9334V33.0667C35.1667 34.5602 35.1667 35.307 34.876 35.8774C34.6204 36.3792 34.2124 36.7871 33.7106 37.0428C33.1402 37.3334 32.3935 37.3334 30.9 37.3334H23.4333C21.9399 37.3334 21.1931 37.3334 20.6227 37.0428C20.1209 36.7871 19.713 36.3792 19.4573 35.8774C19.1667 35.307 19.1667 34.5602 19.1667 33.0667V28.0001H21.8333C21.8333 29.0238 22.2238 30.0475 23.0049 30.8285C24.567 32.3906 27.0996 32.3906 28.6617 30.8285L31.2149 28.2753C31.4289 28.0615 31.7282 27.7625 31.9805 27.4652C32.2863 27.105 32.7426 26.5018 33.02 25.6482C33.368 24.577 33.368 23.4232 33.02 22.352C32.7426 21.4983 32.2863 20.8952 31.9805 20.535C31.7281 20.2376 31.4289 19.9386 31.2149 19.7248L28.6617 17.1717C27.0996 15.6096 24.567 15.6096 23.0049 17.1717C22.2238 17.9527 21.8333 18.9764 21.8333 20.0001H19.1667V14.9334Z" fill="#437EF7"/>
</svg>
