<svg width="48" height="48" viewBox="0 0 48 48" fill="none" xmlns="http://www.w3.org/2000/svg">
<rect width="48" height="48" rx="24" fill="#C7C4FD"/>
<path fill-rule="evenodd" clip-rule="evenodd" d="M18.667 18.8308L17.4201 23.8184C17.1975 24.7087 16.3975 25.3333 15.4798 25.3333H12.0003C11.2639 25.3333 10.667 24.7363 10.667 24C10.667 23.2636 11.2639 22.6666 12.0003 22.6666H14.9593L16.7267 15.597C17.2317 13.577 20.1023 13.5771 20.6073 15.597L24.0003 29.1692L25.2472 24.1816C25.4698 23.2912 26.2698 22.6666 27.1875 22.6666H37.3337C38.07 22.6666 38.667 23.2636 38.667 24C38.667 24.7363 38.07 25.3333 37.3337 25.3333H27.708L25.9406 32.403C25.4356 34.4229 22.565 34.4229 22.06 32.403L18.667 18.8308ZM19.3136 16.2444C19.3135 16.2446 19.3136 16.2442 19.3136 16.2444V16.2444Z" fill="#463EE3"/>
</svg>
