<svg width="48" height="48" viewBox="0 0 48 48" fill="none" xmlns="http://www.w3.org/2000/svg">
<rect width="48" height="48" rx="24" fill="#437EF7"/>
<path fill-rule="evenodd" clip-rule="evenodd" d="M13.333 31.9998V21.9211C13.333 20.3215 14.051 18.8063 15.2891 17.7933L22.311 12.0481C23.2933 11.2444 24.706 11.2444 25.6883 12.0481L32.7103 17.7933C33.9483 18.8063 34.6663 20.3215 34.6663 21.9211V31.9998C34.6663 33.4726 33.4724 34.6665 31.9997 34.6665H29.333C29.3264 34.6665 29.3199 34.6664 29.3133 34.6663H18.686C18.6795 34.6664 18.6729 34.6665 18.6663 34.6665H15.9997C14.5269 34.6665 13.333 33.4726 13.333 31.9998ZM19.9997 31.333C19.9997 31.7012 20.2982 31.9997 20.6663 31.9997H27.333C27.7012 31.9997 27.9997 31.7012 27.9997 31.333V25.3331C27.9997 24.5968 27.4027 23.9998 26.6663 23.9998H21.333C20.5966 23.9998 19.9997 24.5968 19.9997 25.3331V31.333Z" fill="white"/>
</svg>
