<svg width="29" height="28" viewBox="0 0 29 28" fill="none" xmlns="http://www.w3.org/2000/svg">
<g clip-path="url(#clip0_4709_84550)">
<path d="M3.15387 8.16666H26.4871C26.4862 7.01358 26.4715 6.40917 26.2328 5.94068C26.0091 5.50163 25.6522 5.14468 25.2131 4.92097C24.714 4.66666 24.0606 4.66666 22.7538 4.66666H6.88714C5.58035 4.66666 4.92696 4.66666 4.42783 4.92097C3.98879 5.14468 3.63183 5.50163 3.40813 5.94068C3.16942 6.40917 3.15477 7.01358 3.15387 8.16666Z" fill="#437EF7"/>
<path fill-rule="evenodd" clip-rule="evenodd" d="M26.4871 10.5H3.15381V19.6C3.15381 20.9068 3.15381 21.5602 3.40813 22.0593C3.63183 22.4983 3.98879 22.8553 4.42783 23.079C4.92696 23.3333 5.58035 23.3333 6.88714 23.3333H22.7538C24.0606 23.3333 24.714 23.3333 25.2131 23.079C25.6522 22.8553 26.0091 22.4983 26.2328 22.0593C26.4871 21.5602 26.4871 20.9068 26.4871 19.6V10.5ZM6.65381 18.6667C6.65381 18.0223 7.17614 17.5 7.82048 17.5H12.4871C13.1315 17.5 13.6538 18.0223 13.6538 18.6667C13.6538 19.311 13.1315 19.8333 12.4871 19.8333H7.82048C7.17614 19.8333 6.65381 19.311 6.65381 18.6667ZM17.1538 17.5C16.5095 17.5 15.9871 18.0223 15.9871 18.6667C15.9871 19.311 16.5095 19.8333 17.1538 19.8333H21.8205C22.4648 19.8333 22.9871 19.311 22.9871 18.6667C22.9871 18.0223 22.4648 17.5 21.8205 17.5H17.1538Z" fill="#437EF7"/>
</g>
<defs>
<clipPath id="clip0_4709_84550">
<rect width="28" height="28" fill="white" transform="translate(0.820312)"/>
</clipPath>
</defs>
</svg>
