<svg width="32" height="32" viewBox="0 0 32 32" fill="none" xmlns="http://www.w3.org/2000/svg">
<rect x="0.5" y="0.5" width="31" height="31" rx="15.5" fill="white"/>
<path d="M10.6665 15.6191L10.6665 20.2857M12.9998 15.344V19.7143C12.9998 20.4507 13.5968 21.0476 14.3332 21.0476H19.5933C20.2199 21.0476 20.7619 20.6113 20.8958 19.9992L21.8228 15.7615C21.9138 15.3458 21.5972 14.9524 21.1716 14.9524H18.6665C17.9301 14.9524 17.3332 14.3554 17.3332 13.6191V12.6973C17.3332 12.0069 17.0589 11.3448 16.5708 10.8567C16.2773 10.5631 15.7877 10.6157 15.5632 10.9649L13.2116 14.623C13.0733 14.838 12.9998 15.0883 12.9998 15.344Z" stroke="#5F6D7E" stroke-width="2" stroke-linecap="round"/>
<rect x="0.5" y="0.5" width="31" height="31" rx="15.5" stroke="#DAE0E6"/>
</svg>
