<svg width="20" height="20" viewBox="0 0 20 20" fill="none" xmlns="http://www.w3.org/2000/svg">
<path d="M0 1.43266C0 0.641875 0.662031 0 1.47812 0H18.5219C19.3383 0 20 0.641875 20 1.43266V18.5676C20 19.3586 19.3383 20 18.5219 20H1.47812C0.662109 20 0 19.3587 0 18.5678V1.43242V1.43266Z" fill="#272D37"/>
<path d="M6.07791 16.7375V7.73341H3.0851V16.7375H6.07822H6.07791ZM4.58213 6.50427C5.62557 6.50427 6.27518 5.81287 6.27518 4.9488C6.25564 4.06505 5.62557 3.39294 4.60197 3.39294C3.57768 3.39294 2.90869 4.06505 2.90869 4.94873C2.90869 5.81279 3.55807 6.50419 4.56252 6.50419H4.58189L4.58213 6.50427ZM7.73447 16.7375H10.727V11.7097C10.727 11.441 10.7466 11.1715 10.8256 10.9796C11.0419 10.4417 11.5343 9.8849 12.3613 9.8849C13.4439 9.8849 13.8773 10.7105 13.8773 11.9211V16.7375H16.8698V11.5748C16.8698 8.80927 15.3935 7.52232 13.4245 7.52232C11.8103 7.52232 11.1013 8.42458 10.7074 9.03912H10.7273V7.73373H7.73463C7.77369 8.57841 7.73439 16.7378 7.73439 16.7378L7.73447 16.7375Z" fill="white"/>
</svg>
