<svg width="25" height="24" viewBox="0 0 25 24" fill="none" xmlns="http://www.w3.org/2000/svg">
<path fill-rule="evenodd" clip-rule="evenodd" d="M2.27375 0C1.29444 0 0.5 0.77025 0.5 1.71919V22.2814C0.5 23.2304 1.29453 24 2.27375 24H22.7262C23.7059 24 24.5 23.2303 24.5 22.2811V1.71919C24.5 0.77025 23.7059 0 22.7262 0H2.27375ZM7.7933 9.2801V20.085H4.20192V9.2801H7.7933ZM8.03002 5.93856C8.03002 6.97544 7.25048 7.80513 5.99836 7.80513L5.99808 7.80503H5.97483C4.76948 7.80503 3.99023 6.97535 3.99023 5.93847C3.99023 4.87806 4.79302 4.07153 6.02217 4.07153C7.25048 4.07153 8.00658 4.87806 8.03002 5.93856ZM13.3723 20.085H9.78117L9.78108 20.0853C9.78108 20.0853 9.82823 10.2941 9.78136 9.28047H13.3725V10.8099C13.8499 10.0738 14.7043 9.02678 16.6093 9.02678C18.972 9.02678 20.7435 10.5711 20.7435 13.8898V20.085H17.1525V14.3053C17.1525 12.8526 16.6325 11.8619 15.3333 11.8619C14.341 11.8619 13.7501 12.53 13.4906 13.1755C13.3957 13.4058 13.3723 13.7292 13.3723 14.0517V20.085Z" fill="white"/>
</svg>
