<svg width="48" height="49" viewBox="0 0 48 49" fill="none" xmlns="http://www.w3.org/2000/svg">
<rect y="0.5" width="48" height="48" rx="24" fill="#437EF7"/>
<path d="M33.066 15.1667H14.9327C13.4392 15.1667 12.6925 15.1667 12.122 15.4574C11.6203 15.7131 11.2123 16.121 10.9567 16.6228C10.666 17.1932 10.666 17.9399 10.666 19.4334V34.7742C10.666 35.3457 10.666 35.6314 10.7864 35.8035C10.8915 35.9538 11.0538 36.0541 11.2352 36.0809C11.443 36.1116 11.6986 35.9838 12.2097 35.7282L15.0985 34.2839C15.4344 34.1159 15.6024 34.0319 15.7785 33.9726C15.9349 33.92 16.0958 33.882 16.2591 33.8592C16.4431 33.8334 16.6309 33.8334 17.0066 33.8334H33.066C34.5595 33.8334 35.3062 33.8334 35.8767 33.5428C36.3784 33.2871 36.7864 32.8792 37.042 32.3774C37.3327 31.807 37.3327 31.0602 37.3327 29.5667V19.4334C37.3327 17.9399 37.3327 17.1932 37.042 16.6228C36.7864 16.121 36.3784 15.7131 35.8767 15.4574C35.3062 15.1667 34.5595 15.1667 33.066 15.1667Z" fill="white"/>
</svg>
