<svg width="25" height="24" viewBox="0 0 25 24" fill="none" xmlns="http://www.w3.org/2000/svg">
<g clip-path="url(#clip0_4709_86715)">
<path d="M14.0423 12C14.0423 15.6661 11.0179 18.6429 7.27116 18.6429C3.52445 18.6429 0.5 15.6661 0.5 12C0.5 8.334 3.52445 5.35718 7.27116 5.35718C11.0179 5.35718 14.0423 8.334 14.0423 12ZM21.4605 12C21.4605 15.4461 19.9408 18.247 18.0749 18.247C16.2091 18.247 14.6893 15.4461 14.6893 12C14.6893 8.55396 16.2091 5.75311 18.0749 5.75311C19.9408 5.75311 21.4605 8.5393 21.4605 12ZM24.5 12C24.5 15.0942 23.9734 17.6017 23.3113 17.6017C22.6492 17.6017 22.1226 15.0942 22.1226 12C22.1226 8.9059 22.6492 6.39833 23.3113 6.39833C23.9734 6.39833 24.5 8.9059 24.5 12Z" fill="white"/>
</g>
<defs>
<clipPath id="clip0_4709_86715">
<rect width="24" height="24" fill="white" transform="translate(0.5)"/>
</clipPath>
</defs>
</svg>
