<svg width="48" height="49" viewBox="0 0 48 49" fill="none" xmlns="http://www.w3.org/2000/svg">
<rect y="0.5" width="48" height="48" rx="24" fill="#437EF7"/>
<path d="M19.9743 21.5068C20.8223 23.2728 21.9781 24.928 23.442 26.3919C24.9059 27.8558 26.5611 29.0117 28.3271 29.8596C28.479 29.9325 28.555 29.969 28.6511 29.997C28.9926 30.0966 29.412 30.025 29.7013 29.8179C29.7827 29.7596 29.8523 29.69 29.9916 29.5507C30.4175 29.1248 30.6305 28.9119 30.8446 28.7726C31.6522 28.2476 32.6933 28.2476 33.5009 28.7726C33.715 28.9119 33.928 29.1248 34.3539 29.5507L34.5913 29.7881C35.2388 30.4356 35.5625 30.7593 35.7384 31.107C36.0881 31.7984 36.0881 32.615 35.7384 33.3065C35.5625 33.6541 35.2388 33.9778 34.5913 34.6253L34.3993 34.8173C33.7541 35.4626 33.4314 35.7852 32.9928 36.0316C32.5061 36.305 31.7502 36.5016 31.1919 36.4999C30.6889 36.4984 30.345 36.4008 29.6574 36.2056C25.9618 35.1567 22.4747 33.1777 19.5655 30.2684C16.6562 27.3592 14.6772 23.8721 13.6283 20.1765C13.4331 19.4889 13.3355 19.145 13.334 18.642C13.3323 18.0837 13.5289 17.3278 13.8023 16.8411C14.0487 16.4025 14.3713 16.0798 15.0166 15.4346L15.2086 15.2426C15.8561 14.5951 16.1798 14.2714 16.5274 14.0956C17.2189 13.7458 18.0355 13.7458 18.7269 14.0956C19.0746 14.2714 19.3983 14.5951 20.0458 15.2426L20.2832 15.48C20.7091 15.9059 20.922 16.1189 21.0613 16.333C21.5863 17.1406 21.5863 18.1817 21.0613 18.9893C20.922 19.2034 20.7091 19.4164 20.2832 19.8423C20.1439 19.9816 20.0743 20.0512 20.016 20.1326C19.8089 20.4219 19.7373 20.8413 19.8369 21.1828C19.8649 21.2789 19.9014 21.3549 19.9743 21.5068Z" fill="white"/>
</svg>
