<svg width="25" height="24" viewBox="0 0 25 24" fill="none" xmlns="http://www.w3.org/2000/svg">
<path fill-rule="evenodd" clip-rule="evenodd" d="M7.3968 21.9307C7.05215 21.9157 6.18567 21.764 5.30764 21.5332C4.43644 21.3082 3.84128 21.0078 3.84128 21.0078C3.51381 20.8438 3.3943 20.5851 3.34841 20.3178C3.36241 20.323 3.23746 19.4783 3.23746 17.8444C3.23746 16.604 3.3048 15.9394 3.33558 15.7295C3.36858 15.5085 3.48004 15.3275 3.77744 15.3412C4.07487 15.3552 4.4792 15.3481 5.43011 15.5141C6.56403 15.7167 7.11966 15.8878 7.38935 15.9771C7.63326 16.0612 7.89006 16.245 7.93968 16.5892C7.93968 16.5892 8.07102 17.4938 8.06906 18.8653C8.071 19.9754 7.9879 21.0752 7.95009 21.4308C7.91484 21.7601 7.74145 21.9458 7.3968 21.9307ZM12.5306 18.1162C12.5304 17.92 12.4474 17.7372 12.2876 17.5925L9.34994 14.8738C9.01286 14.5403 8.61177 14.3324 8.12377 14.2354C8.12377 14.2354 7.01548 13.9772 5.36565 13.7162C3.71579 13.4552 3.28494 13.4847 3.28494 13.4847C1.82222 13.4847 1.7695 14.9567 1.7544 15.1053C1.71827 15.4606 1.63232 16.4021 1.63232 17.7128C1.63232 19.2596 1.70205 20.3314 1.78623 20.9866C1.91419 21.9865 2.72792 22.4554 3.10247 22.633C3.19741 22.6778 4.21375 23.0839 5.24432 23.3838C5.93888 23.5863 7.05186 23.8823 7.57326 23.9601C7.74458 23.986 8.75173 24.1493 9.22753 23.554L12.3492 19.7343C12.4786 19.5574 12.5306 19.4854 12.5306 19.2146V18.1162ZM19.3534 12.5444C18.9106 12.502 18.4652 12.4929 18.021 12.517L11.0001 13.1373C11.0001 13.1373 10.5347 13.2043 10.2695 13.5381C10.0645 13.7964 10.0213 14.0119 10.0213 14.0119C10.1142 14.099 10.1518 14.1347 10.2029 14.179L12.9754 16.8479C13.2854 17.1352 13.4653 17.4147 13.4653 17.833V19.3363C13.4653 19.6036 13.4409 19.8282 13.2835 20.0298L11.7966 21.9362L13.2926 22.4839C13.8603 22.6605 14.3875 22.6554 14.9801 22.5703L21.42 21.1749C21.42 21.1749 22.5813 20.8833 22.5815 19.8422V16.1385C22.5815 16.067 22.5376 16.0055 22.4586 16.0206L18.3464 16.7835C18.1929 16.8129 18.0968 16.937 18.0968 17.0761V18.8702C18.0968 18.9774 18.2289 19.0638 18.3464 19.0389L19.6349 18.755C19.7019 18.7376 19.7537 18.784 19.7563 18.8702V19.449C19.7502 19.5681 19.651 19.6503 19.5114 19.6805L18.053 19.9758C18.0542 19.9715 17.0742 20.2113 17.0742 19.223V16.9347C17.0742 15.9361 17.8413 15.835 17.8413 15.835L22.369 15.0111C22.487 14.9901 22.5815 14.8914 22.5815 14.7846V13.8525C22.5772 12.8233 21.5244 12.7596 21.5244 12.7596L19.3534 12.5444ZM10.9382 2.83558C12.6222 2.90319 13.8987 4.41252 13.8111 6.24803C13.714 8.0783 12.2545 9.53817 10.6321 9.47511C8.94851 9.40748 7.72819 7.88335 7.81536 6.04817C7.91251 4.21793 9.31583 2.77252 10.9382 2.83558ZM17.7219 7.12886C17.7909 5.87743 18.737 4.88835 19.8538 4.92845C20.9156 4.97346 21.7635 6.03601 21.7067 7.24676C21.6382 8.5018 20.6773 9.45325 19.5629 9.41974C18.4983 9.36776 17.6656 8.34356 17.7219 7.12886ZM23.3674 7.29242C23.3644 4.82225 21.4171 2.83598 19.0203 2.83598C17.6212 2.83598 16.3518 3.53489 15.5304 4.57226C14.8993 1.93552 12.5672 -0.00729417 9.7751 2.05861e-05C6.44287 0.0088144 3.76381 2.72623 3.77493 6.07702C3.78609 9.46183 6.47951 12.2119 9.7751 12.2025C9.96491 12.2004 19.0463 11.6247 19.0203 11.6242C21.6376 11.4109 23.3807 9.70515 23.3674 7.29242Z" fill="white"/>
</svg>
