<svg width="48" height="48" viewBox="0 0 48 48" fill="none" xmlns="http://www.w3.org/2000/svg">
<path d="M13.7899 20.6531C18.0731 20.6531 21.5455 24.15 21.5455 28.4634C21.5455 32.7761 18.0731 36.273 13.7899 36.273C9.50672 36.273 6.03436 32.7761 6.03436 28.4634L6 27.3475C6 18.7205 12.9447 11.7275 21.5111 11.7275V16.1907C18.5517 16.1907 15.7691 17.3509 13.677 19.4585C13.2736 19.8635 12.9063 20.2955 12.5749 20.7488C12.9709 20.6858 13.3767 20.6531 13.7899 20.6531ZM34.2445 20.6531C38.5276 20.6531 42 24.15 42 28.4634C42 32.7761 38.5276 36.273 34.2445 36.273C29.9613 36.273 26.4889 32.7761 26.4889 28.4634L26.4545 27.3475C26.4545 18.7205 33.3993 11.7275 41.9656 11.7275V16.1907C39.0063 16.1907 36.2236 17.3509 34.1315 19.4585C33.7282 19.8635 33.3608 20.2955 33.0295 20.7488C33.4255 20.6858 33.8313 20.6531 34.2445 20.6531Z" fill="#437EF7"/>
</svg>
