<svg width="56" height="56" viewBox="0 0 56 56" fill="none" xmlns="http://www.w3.org/2000/svg">
<g filter="url(#filter0_d_4709_112117)">
<rect x="4" width="48" height="48" rx="24" fill="#437EF7" shape-rendering="crispEdges"/>
<path fill-rule="evenodd" clip-rule="evenodd" d="M17.333 31.9998V21.9211C17.333 20.3215 18.051 18.8063 19.2891 17.7933L26.311 12.0481C27.2933 11.2444 28.706 11.2444 29.6883 12.0481L36.7103 17.7933C37.9483 18.8063 38.6663 20.3215 38.6663 21.9211V31.9998C38.6663 33.4726 37.4724 34.6665 35.9997 34.6665H33.333C33.3264 34.6665 33.3199 34.6664 33.3133 34.6663H22.686C22.6795 34.6664 22.6729 34.6665 22.6663 34.6665H19.9997C18.5269 34.6665 17.333 33.4726 17.333 31.9998ZM23.9997 31.333C23.9997 31.7012 24.2982 31.9997 24.6663 31.9997H31.333C31.7012 31.9997 31.9997 31.7012 31.9997 31.333V25.3331C31.9997 24.5968 31.4027 23.9998 30.6663 23.9998H25.333C24.5966 23.9998 23.9997 24.5968 23.9997 25.3331V31.333Z" fill="white"/>
</g>
<defs>
<filter id="filter0_d_4709_112117" x="0" y="0" width="56" height="56" filterUnits="userSpaceOnUse" color-interpolation-filters="sRGB">
<feFlood flood-opacity="0" result="BackgroundImageFix"/>
<feColorMatrix in="SourceAlpha" type="matrix" values="0 0 0 0 0 0 0 0 0 0 0 0 0 0 0 0 0 0 127 0" result="hardAlpha"/>
<feOffset dy="4"/>
<feGaussianBlur stdDeviation="2"/>
<feComposite in2="hardAlpha" operator="out"/>
<feColorMatrix type="matrix" values="0 0 0 0 0 0 0 0 0 0 0 0 0 0 0 0 0 0 0.25 0"/>
<feBlend mode="normal" in2="BackgroundImageFix" result="effect1_dropShadow_4709_112117"/>
<feBlend mode="normal" in="SourceGraphic" in2="effect1_dropShadow_4709_112117" result="shape"/>
</filter>
</defs>
</svg>
