<svg width="32" height="32" viewBox="0 0 32 32" fill="none" xmlns="http://www.w3.org/2000/svg">
<path fill-rule="evenodd" clip-rule="evenodd" d="M10.667 10.8308L9.42009 15.8184C9.19751 16.7087 8.39754 17.3333 7.47981 17.3333H4.00033C3.26395 17.3333 2.66699 16.7363 2.66699 16C2.66699 15.2636 3.26395 14.6666 4.00033 14.6666H6.95929L8.72671 7.59696C9.23169 5.57704 12.1023 5.57707 12.6073 7.59696L16.0003 21.1692L17.2472 16.1816C17.4698 15.2912 18.2698 14.6666 19.1875 14.6666H29.3337C30.07 14.6666 30.667 15.2636 30.667 16C30.667 16.7363 30.07 17.3333 29.3337 17.3333H19.708L17.9406 24.403C17.4356 26.4229 14.565 26.4229 14.06 24.403L10.667 10.8308ZM11.3136 8.24441C11.3136 8.24418 11.3135 8.24464 11.3136 8.24441Z" fill="#463EE3"/>
</svg>
